<mxfile host="65bd71144e">
    <diagram name="Page-1" id="2RcEgNmYSXmnE4ZaFLYj">
        <mxGraphModel dx="858" dy="874" grid="1" gridSize="10" guides="1" tooltips="1" connect="1" arrows="1" fold="1" page="1" pageScale="1" pageWidth="850" pageHeight="1100" math="0" shadow="0">
            <root>
                <mxCell id="0"/>
                <mxCell id="1" parent="0"/>
                <mxCell id="wvhLKEU0HNjPkw92CngU-16" value="" style="rounded=1;whiteSpace=wrap;html=1;arcSize=3;" parent="1" vertex="1">
                    <mxGeometry x="32.5" y="40" width="567.5" height="620" as="geometry"/>
                </mxCell>
                <mxCell id="wvhLKEU0HNjPkw92CngU-2" value="" style="rounded=1;whiteSpace=wrap;html=1;" parent="1" vertex="1">
                    <mxGeometry x="50" y="50" width="540" height="60" as="geometry"/>
                </mxCell>
                <mxCell id="wvhLKEU0HNjPkw92CngU-3" value="" style="rounded=1;whiteSpace=wrap;html=1;" parent="1" vertex="1">
                    <mxGeometry x="50" y="120" width="540" height="30" as="geometry"/>
                </mxCell>
                <mxCell id="wvhLKEU0HNjPkw92CngU-4" value="" style="rounded=1;whiteSpace=wrap;html=1;" parent="1" vertex="1">
                    <mxGeometry x="50" y="160" width="540" height="30" as="geometry"/>
                </mxCell>
                <mxCell id="wvhLKEU0HNjPkw92CngU-5" value="" style="rounded=1;whiteSpace=wrap;html=1;" parent="1" vertex="1">
                    <mxGeometry x="50" y="200" width="190" height="30" as="geometry"/>
                </mxCell>
                <mxCell id="wvhLKEU0HNjPkw92CngU-6" value="" style="rounded=1;whiteSpace=wrap;html=1;" parent="1" vertex="1">
                    <mxGeometry x="50" y="240" width="120" height="20" as="geometry"/>
                </mxCell>
                <mxCell id="wvhLKEU0HNjPkw92CngU-7" value="" style="rounded=1;whiteSpace=wrap;html=1;" parent="1" vertex="1">
                    <mxGeometry x="50" y="270" width="310" height="110" as="geometry"/>
                </mxCell>
                <mxCell id="wvhLKEU0HNjPkw92CngU-8" value="" style="rounded=1;whiteSpace=wrap;html=1;" parent="1" vertex="1">
                    <mxGeometry x="50" y="390" width="150" height="30" as="geometry"/>
                </mxCell>
                <mxCell id="wvhLKEU0HNjPkw92CngU-9" value="" style="rounded=1;whiteSpace=wrap;html=1;arcSize=10;" parent="1" vertex="1">
                    <mxGeometry x="50" y="430" width="540" height="220" as="geometry"/>
                </mxCell>
                <mxCell id="wvhLKEU0HNjPkw92CngU-10" value="" style="rounded=1;whiteSpace=wrap;html=1;" parent="1" vertex="1">
                    <mxGeometry x="65" y="440" width="75" height="20" as="geometry"/>
                </mxCell>
                <mxCell id="wvhLKEU0HNjPkw92CngU-11" value="" style="rounded=1;whiteSpace=wrap;html=1;" parent="1" vertex="1">
                    <mxGeometry x="150" y="440" width="420" height="50" as="geometry"/>
                </mxCell>
                <mxCell id="wvhLKEU0HNjPkw92CngU-14" value="" style="rounded=1;whiteSpace=wrap;html=1;" parent="1" vertex="1">
                    <mxGeometry x="67.5" y="500" width="75" height="20" as="geometry"/>
                </mxCell>
                <mxCell id="wvhLKEU0HNjPkw92CngU-15" value="" style="rounded=1;whiteSpace=wrap;html=1;" parent="1" vertex="1">
                    <mxGeometry x="152.5" y="500" width="167.5" height="50" as="geometry"/>
                </mxCell>
                <mxCell id="wvhLKEU0HNjPkw92CngU-17" value="" style="rounded=1;whiteSpace=wrap;html=1;" parent="1" vertex="1">
                    <mxGeometry x="65" y="560" width="75" height="20" as="geometry"/>
                </mxCell>
                <mxCell id="wvhLKEU0HNjPkw92CngU-18" value="" style="rounded=1;whiteSpace=wrap;html=1;" parent="1" vertex="1">
                    <mxGeometry x="150" y="560" width="167.5" height="70" as="geometry"/>
                </mxCell>
                <mxCell id="wvhLKEU0HNjPkw92CngU-19" value="" style="rounded=1;whiteSpace=wrap;html=1;" parent="1" vertex="1">
                    <mxGeometry x="320" y="560" width="75" height="20" as="geometry"/>
                </mxCell>
                <mxCell id="wvhLKEU0HNjPkw92CngU-20" value="" style="rounded=1;whiteSpace=wrap;html=1;" parent="1" vertex="1">
                    <mxGeometry x="405" y="560" width="167.5" height="70" as="geometry"/>
                </mxCell>
                <mxCell id="2" style="edgeStyle=none;html=1;exitX=0.5;exitY=1;exitDx=0;exitDy=0;entryX=0.75;entryY=1;entryDx=0;entryDy=0;" edge="1" parent="1" source="wvhLKEU0HNjPkw92CngU-19" target="wvhLKEU0HNjPkw92CngU-19">
                    <mxGeometry relative="1" as="geometry"/>
                </mxCell>
            </root>
        </mxGraphModel>
    </diagram>
</mxfile>